<mxfile host="app.diagrams.net" modified="2021-07-28T08:45:45.584Z" agent="5.0 (Windows)" etag="rQv8pyvyS1h2bmrdtmTd" version="14.7.7" type="github">
  <diagram id="g9GUgYayCcv3mOfplAVB" name="Page-1">
    <mxGraphModel dx="1038" dy="508" grid="1" gridSize="10" guides="1" tooltips="1" connect="1" arrows="1" fold="1" page="1" pageScale="1" pageWidth="1169" pageHeight="827" math="0" shadow="0">
      <root>
        <mxCell id="0" />
        <mxCell id="1" parent="0" />
        <mxCell id="McnS6wod5p9gH7W8vCfP-1" value="PROCESSING OF IMPREST WARRANT/ACTIVITYIMPREST" style="swimlane;fontStyle=0" vertex="1" parent="1">
          <mxGeometry x="20" y="20" width="880" height="770" as="geometry" />
        </mxCell>
        <mxCell id="McnS6wod5p9gH7W8vCfP-2" value="Start" style="rounded=1;whiteSpace=wrap;html=1;" vertex="1" parent="McnS6wod5p9gH7W8vCfP-1">
          <mxGeometry x="180" y="50" width="120" height="60" as="geometry" />
        </mxCell>
        <mxCell id="McnS6wod5p9gH7W8vCfP-5" value="User department raises a imprest/ activity memo" style="rounded=0;whiteSpace=wrap;html=1;" vertex="1" parent="McnS6wod5p9gH7W8vCfP-1">
          <mxGeometry x="180" y="200" width="120" height="60" as="geometry" />
        </mxCell>
        <mxCell id="McnS6wod5p9gH7W8vCfP-4" value="" style="edgeStyle=orthogonalEdgeStyle;rounded=0;orthogonalLoop=1;jettySize=auto;html=1;" edge="1" parent="McnS6wod5p9gH7W8vCfP-1" source="McnS6wod5p9gH7W8vCfP-2" target="McnS6wod5p9gH7W8vCfP-5">
          <mxGeometry relative="1" as="geometry">
            <mxPoint x="240" y="190" as="targetPoint" />
          </mxGeometry>
        </mxCell>
      </root>
    </mxGraphModel>
  </diagram>
</mxfile>
